<svg id="レイヤー_1" data-name="レイヤー 1" xmlns="http://www.w3.org/2000/svg" viewBox="0 0 28.04 28.04"><defs><style>.cls-1{isolation:isolate;}</style></defs><title>edit</title><g id="edit"><g class="cls-1"><path d="M27.17,4.46A3.06,3.06,0,0,1,28,6.57a3,3,0,0,1-.87,2.12L10.73,25.13a.24.24,0,0,1-.1.05L.31,28a.1.1,0,0,1-.07,0A.19.19,0,0,1,.08,28,.23.23,0,0,1,0,27.75L2.86,17.43a.43.43,0,0,1,.07-.1L19.37.89a3,3,0,0,1,4.21,0ZM.56,27.47l9.57-2.62L3.21,17.93Zm27-20.9a2.62,2.62,0,0,0-.74-1.79L23.26,1.21a2.52,2.52,0,0,0-3.57,0L3.41,17.49l7.15,7.16L26.84,8.37A2.61,2.61,0,0,0,27.58,6.57Z" transform="translate(0 -0.01)"/></g></g></svg>