<svg id="レイヤー_1" data-name="レイヤー 1" xmlns="http://www.w3.org/2000/svg" viewBox="0 0 24.25 24.26"><defs><style>.cls-1{isolation:isolate;}</style></defs><title>edit_on</title><g id="edit_on" data-name="edit on"><g class="cls-1"><path d="M23.37,3.84a3,3,0,0,1,0,4.28L9.8,21.68a.64.64,0,0,1-.34.19L.93,24.23l-.19,0A.74.74,0,0,1,.21,24,.77.77,0,0,1,0,23.31l2.35-8.53a1.5,1.5,0,0,1,.19-.32L16.15.9a3,3,0,0,1,4.27,0ZM1.8,22.46l6.05-1.67L3.48,16.42ZM22.32,4.89,19.38,1.94a1.56,1.56,0,0,0-2.19,0L4.14,15l5.13,5.13,13.05-13A1.53,1.53,0,0,0,22.32,4.89Z" transform="translate(0 0)"/></g></g></svg>