<svg id="レイヤー_1" data-name="レイヤー 1" xmlns="http://www.w3.org/2000/svg" viewBox="0 0 26.4 23.55"><defs><style>.cls-1{isolation:isolate;}</style></defs><title>heart</title><g id="heart"><g class="cls-1"><path d="M26.4,7.39a7.29,7.29,0,0,1-2.28,5.34L13.2,23.56l-11.13-11A7.34,7.34,0,0,1,0,7.39,7.42,7.42,0,0,1,7.47,0,7.52,7.52,0,0,1,13.2,2.66,7.49,7.49,0,0,1,26.4,7.39Zm-13.2-4a7,7,0,0,0-12.74,4A6.93,6.93,0,0,0,2.39,12.2L13.2,22.91l10.6-10.5a6.88,6.88,0,0,0,2.14-5,7,7,0,0,0-12.74-4Z" transform="translate(0 -0.01)"/></g></g></svg>