<svg id="レイヤー_1" data-name="レイヤー 1" xmlns="http://www.w3.org/2000/svg" viewBox="0 0 22.91 20.78"><defs><style>.cls-1{isolation:isolate;}</style></defs><title>heart_on</title><g id="heart_on" data-name="heart on"><g class="cls-1"><path d="M22.91,6.65a6.63,6.63,0,0,1-2.05,4.81l-9.4,9.32-9.6-9.51A6.66,6.66,0,0,1,6.73,0a6.77,6.77,0,0,1,4.73,1.94A6.73,6.73,0,0,1,22.91,6.65ZM11.46,4.41A5.33,5.33,0,0,0,6.73,1.48,5.21,5.21,0,0,0,1.48,6.65a5.12,5.12,0,0,0,1.45,3.59l8.53,8.45,8.37-8.3a5,5,0,0,0,1.6-3.74,5.2,5.2,0,0,0-5.24-5.17A5.31,5.31,0,0,0,11.46,4.41Z" transform="translate(0 0)"/></g></g></svg>