<svg id="レイヤー_1" data-name="レイヤー 1" xmlns="http://www.w3.org/2000/svg" viewBox="0 0 22.38 27.45"><defs><style>.cls-1{isolation:isolate;}</style></defs><title>return</title><g id="right093_-_E114" data-name="right093 - E114" class="cls-1"><g class="cls-1"><path d="M21.71,21.53h1.48a11.27,11.27,0,0,1-.88,4.35,11.3,11.3,0,0,1-6,6,11.31,11.31,0,0,1-8.7,0,11.36,11.36,0,0,1-6-6,11.31,11.31,0,0,1,0-8.7A10.88,10.88,0,0,1,4.1,13.63a10.88,10.88,0,0,1,3.55-2.42A11.33,11.33,0,0,1,12,10.34h3.46l-4.3-4,1-1.08,6.25,5.81-6.25,5.81-1-1.08,4.3-4H12a10,10,0,0,0-3.78.76,9.83,9.83,0,0,0-3.08,2.09,9.66,9.66,0,0,0-2.09,3.08,9.78,9.78,0,0,0,0,7.56,9.9,9.9,0,0,0,5.17,5.17,9.78,9.78,0,0,0,7.56,0,9.69,9.69,0,0,0,5.93-8.95Z" transform="translate(-0.81 -5.27)"/></g></g></svg>