<svg id="レイヤー_1" data-name="レイヤー 1" xmlns="http://www.w3.org/2000/svg" viewBox="0 0 29.25 29.41"><defs><style>.cls-1{isolation:isolate;}</style></defs><title>search</title><g id="search"><g class="cls-1"><path d="M21.68,21.53l7.57,7.57-.32.32-7.57-7.57a12.67,12.67,0,1,1,3.93-9.17A12.55,12.55,0,0,1,21.68,21.53ZM19.5,22.75a12.75,12.75,0,0,0,1.79-1.49,11.83,11.83,0,0,0,2.6-3.87,12.22,12.22,0,0,0,.94-4.71,12.41,12.41,0,0,0-.94-4.74,13.14,13.14,0,0,0-1.12-2.09A13.07,13.07,0,0,0,21.27,4a12,12,0,0,0-3.86-2.6,12.28,12.28,0,0,0-9.52,0A12,12,0,0,0,4,4,12.49,12.49,0,0,0,1.43,7.92a12.12,12.12,0,0,0,0,9.5A12.25,12.25,0,0,0,4.05,21.3a12.11,12.11,0,0,0,3.86,2.6,12.26,12.26,0,0,0,4.74.94,12.09,12.09,0,0,0,4.76-1A12.43,12.43,0,0,0,19.5,22.75Z" transform="translate(0 -0.01)"/></g></g></svg>