<svg id="レイヤー_1" data-name="レイヤー 1" xmlns="http://www.w3.org/2000/svg" viewBox="0 0 25.15 25.29"><defs><style>.cls-1{isolation:isolate;}</style></defs><title>search_on</title><g id="search001_-_E000" data-name="search001 - E000"><g class="cls-1"><path d="M18.88,18l6.27,6.27-1,1.05L17.84,19a11.13,11.13,0,1,1,1-1.05Zm-1.46-.61a8.77,8.77,0,0,0,2-2.94,9,9,0,0,0,.72-3.61A9.45,9.45,0,0,0,19.4,7.2a9.3,9.3,0,0,0-2-3,9,9,0,0,0-2.94-2,9.38,9.38,0,0,0-3.65-.74,9.65,9.65,0,0,0-3.65.72,9.4,9.4,0,0,0-4.94,5,9.32,9.32,0,0,0,0,7.28,9.35,9.35,0,0,0,2,2.94,9.22,9.22,0,0,0,3,2,9.48,9.48,0,0,0,3.63.72,9.21,9.21,0,0,0,3.63-.74A9,9,0,0,0,17.42,17.36Z" transform="translate(0 0)"/></g></g></svg>