<svg id="レイヤー_1" data-name="レイヤー 1" xmlns="http://www.w3.org/2000/svg" viewBox="0 0 30.35 30.35"><defs><style>.cls-1{isolation:isolate;}</style></defs><title>setting</title><g id="setting"><g class="cls-1"><path d="M26.88,18.4a12.86,12.86,0,0,1-1.19,2.72l2.48,2.5-4.55,4.56-2.56-2.56a11.22,11.22,0,0,1-2.66,1.11v3.63H12V26.73a11.28,11.28,0,0,1-2.69-1.11L6.71,28.18,2.16,23.62l2.49-2.5a12.92,12.92,0,0,1-1.2-2.72H0V12H3.36A12.38,12.38,0,0,1,4.51,9.09L2.16,6.75,6.71,2.19,9,4.47a12.82,12.82,0,0,1,3-1.22V0H18.4V3.25a14.18,14.18,0,0,1,2.92,1.22l2.3-2.28,4.55,4.56L25.82,9.09A12.38,12.38,0,0,1,27,12h3.38V18.4Zm3-6H26.61A12.36,12.36,0,0,0,25.27,9l2.26-2.25L23.62,2.84,21.41,5.07a11.77,11.77,0,0,0-3.47-1.45V.47H12.42V3.62a12.29,12.29,0,0,0-3.5,1.45L6.71,2.84,2.81,6.75,5.06,9a12,12,0,0,0-1.33,3.43H.46v5.51H3.82a11.64,11.64,0,0,0,1.42,3.27L2.81,23.62l3.9,3.91,2.46-2.48a11,11,0,0,0,3.25,1.31V29.9h5.52V26.36a11.73,11.73,0,0,0,3.22-1.31l2.46,2.48,3.91-3.91-2.44-2.41a11.64,11.64,0,0,0,1.42-3.27h3.38ZM10.76,15.18a4.42,4.42,0,1,1,4.42,4.42A4.42,4.42,0,0,1,10.76,15.18Zm8.37,0a4,4,0,1,0-3.95,4A4,4,0,0,0,19.13,15.18Z" transform="translate(0 -0.01)"/></g></g></svg>