<svg xmlns="http://www.w3.org/2000/svg" width="20.976" height="22.99" viewBox="0 0 20.976 22.99">
  <path id="user001_-_E024" data-name="user001 - E024" d="M1.729-17.841a6.469,6.469,0,0,0,4.712-6.213A6.446,6.446,0,0,0,0-30.5a6.446,6.446,0,0,0-6.441,6.441,6.469,6.469,0,0,0,4.712,6.213A10.465,10.465,0,0,0-10.488-7.505h.38A10.079,10.079,0,0,1,0-17.613,10.079,10.079,0,0,1,10.108-7.505h.38A10.465,10.465,0,0,0,1.729-17.841Zm-7.79-6.213A6.041,6.041,0,0,1,0-30.115a6.041,6.041,0,0,1,6.061,6.061A6.065,6.065,0,0,1,0-17.993,6.065,6.065,0,0,1-6.061-24.054Z" transform="translate(10.488 30.495)"/>
</svg>
