<svg xmlns="http://www.w3.org/2000/svg" viewBox="0 0 380.61 246.25"><defs><style>.cls-1{fill-rule:evenodd;}.cls-2{stroke:#000;stroke-miterlimit:10;stroke-width:2px;}</style></defs><title>アセット 7</title><g id="レイヤー_2" data-name="レイヤー 2"><g id="moji"><path class="cls-1" d="M226.49,4.16c.44,4.77.73,9.7.75,14.9,2.15,0,4.53-.62,7.07-.37,1.47.14,2.81.9,4.47,1.11,4.75.6,10.89,0,16.77,0s11.69.36,16.39.37c2.15,0,4.12-.67,6-.37,3.64.6,9.43,5.23,10.42,8.2,1.73,5.11-.5,13.36.38,20.86,6.34.17,11.9-.91,14.15,3,1.26,2.17,1.22,4.87,1.12,9.31-2.05,4.2-9.23,5.12-14.9,4.47-.68,9.93-.37,21.47-.37,33.15,0,11.42,1.16,23.38,0,33.52-.17,1.43-.93,2.71-1.12,4.1-.21,1.56.17,3.36,0,4.84-.19,1.66-1,3.06-1.12,4.48-1,8.62,2.26,13.06-5.21,16a28.13,28.13,0,0,1-6,1.86c-1.11.15-2.13-.44-3.35-.37s-2.42,1-3.73,1.12c-2.21.26-4.73-.26-7.08,0-1.43.16-2.7.9-4.09,1.12-2.69.41-5.39.3-7.83.74s-4.79,1.25-7.07,1.49c-4.7.51-10,0-14.9,0s-10.12.46-14.53,0c-1.29-.13-2.43-.91-3.73-1.11-1.52-.25-3,.23-4.47,0-3.13-.51-6.29-1.9-8.94-2.24-5.71-.73-10.69,1.54-17.13,2.24-5.28.56-10.61-.43-14.53,0-2.53.27-5.19,1.53-7.82,1.86-1.44.17-3-.14-4.47,0-3.82.34-7.61,1.81-11.55,2.23-1.81.2-3.77-.19-5.58,0-1.62.17-3.18.94-4.85,1.12a120.58,120.58,0,0,1-22.72,0c-1.45-.16-2.79-.91-4.47-1.12-2-.25-4.29.27-6.33,0-4.75-.61-9.21-3.35-11.18-6.7-2.53-4.32-2.24-11.06-3-17.88-.67-6.24-2.81-12.11-3.35-16.76-.27-2.35.22-4.77,0-7.08-.17-1.8-.93-3.42-1.12-5.22-1.32-12.9,1-26.4,0-39.85-5.73-1.85-19.14,3.66-22.35-1.49-1.91-3.08,0-8.31.38-11.18.28-2.48.12-5.11,1.49-6.33s3.77-1.07,6.33-1.49a57.18,57.18,0,0,1,14.15-1.12c2.2-9.5-.71-21.21,7.08-25,2.54-1.22,6.5-.21,8.57-3,.68-3,0-6,.37-9.31.48-3.75,1.14-10,3.72-11.54,3.25-2,8.34,1.1,11.93,1.48,4.3.46,9.25-1.71,13.78-1.11,2.44.32,6,1.35,7.45,3,3,3.5,1,9.37,3.72,12.66,3.41,2.34,8.63,1.88,13,.75,0-4.24-.84-7-1.49-11.55a11.21,11.21,0,0,1-.37-3.73c.31-1.44,4-5,6.7-5.58,3.27-.76,8.06.45,12.67,0,1.64-.16,3.3-.94,4.84-1.12,3.3-.38,6.36.34,8.94,0,1.48-.19,2.55-1,3.72-1.12,7.84-1,16.69,0,24.22,0C214.6.43,223.21-.43,226.49,4.16Zm-44,5.21c-1.51.19-3,1-4.47,1.12-2.79.3-5.79-.38-8.57,0-1.4.19-2.74,1-4.1,1.12-4.13.47-8.05-.36-11.92,0,.77,9.3,3,20.34,2.24,32.4,4.91.54,10.17-.62,15.64,0,3.25.37,6.41,1.9,9.31,2.24,13.56,1.6,25.64-1,36.51-3.35,2.67-9.27.82-22.8,1.49-33.16C206.51,10.15,194.15,7.91,182.54,9.37ZM101,23.9c7.18-1.09,16-3,23.84-1.12-.3-2.43-1.15-4.31-1.49-6.7-5.29-1.06-10.63,1.54-16,.74-1.69-.25-3.83-1.77-5.21-1.49C101.7,18.19,100.6,20.32,101,23.9Zm158.31,5.59c-2.59,0-5.57-.19-7.82,0s-4.4,1.58-6.71,1.86c-4.61.55-9.15-.41-14.15,0-.48,2.62-2.41,3.8-4.1,5.21-.61,4.49.29,10.47-2.61,12.67-2,.34-3.65,1.06-5.58,1.49,1,1.86,2.62,1.23,4.09,2.23,3.22,2.18,5.18,6.89,9.32,8.2,3.68,1.16,12.18.29,18.62,0,6.22-.28,12.81.24,17.88-.37,4.11-.5,7.79-2.32,11.18-1.49a251.62,251.62,0,0,0,0-26.08C271.81,33.57,266.78,29.49,259.27,29.49Zm-117.34,3c-2.48.21-5.07-.53-7.82-.75-2.93-.23-6,.22-8.57,0-2.86-.24-5.63-1-8.19-1.12A41.78,41.78,0,0,0,99.1,34c-1.59.74-3,2.14-4.85,3s-4,1.07-6.33,2.23a109.07,109.07,0,0,0-1.11,29.06c7,1.54,15.22,0,23.84,0,11.29,0,23.77.51,32-1.12,4.67-3.94,9.28-8.36,14.15-11.55a29,29,0,0,0,5.22-3.72c-4-.1-8.48.28-11.92-.38-4.24-3.38-1.25-14.52-2.23-20.11C145.91,31.2,144,32.29,141.93,32.47Zm22.36,30.17c-3.84,1.68-7,5.49-10.43,8.19-3.79,3-7.25,6.09-8.94,8.57s-2.29,5.61-3.73,8.94c-1.11,2.56-2.34,4.91-2.61,7.08-.8,6.61-.2,14.61,2.24,20.11a45.85,45.85,0,0,0,4.84,7.45c1.88,2.59,3.82,5.61,5.59,7.08,2,1.64,4.77,2.8,7.45,4.1,2.07,1,6.38,3.52,8.19,3.72,1.18.14,2.55-.62,3.73-.74,5.18-.52,7.25,1.37,10.8,1.86a70.13,70.13,0,0,0,15.27,0c8.81-1,14.61-4.37,20.86-7.08,8-3.46,10.63-6.13,15.28-12.29,3.38-4.49,5.57-7.76,5.21-15.27-.5-10.34-4.41-23.21-9.31-28.68-.3-.34-.47-.77-.75-1.12-6.55-8.56-10.65-14.85-24.21-16a164.68,164.68,0,0,0-24.21.37A61.31,61.31,0,0,0,164.29,62.64ZM63.34,64.87c.29,1.78-.58,2.4-.38,4.1,4.46-1.27,10.4-.24,14.53-.74.68-.88-.51-2.5.38-3.73C73,63.16,68.1,64.12,63.34,64.87ZM237.67,69c5.29,9.5,11.52,24.3,11.17,38.74-.18,7.53-3.23,12.26-6.33,16.39-1.55,2.07-3.72,4.13-4.1,6.71,10.54,1,25.33-1.14,36.51,0a13.78,13.78,0,0,1,4.47,1.11c-.25-21.35.49-43.7-.38-64.44C267.85,71.35,251.19,69.2,237.67,69ZM86.43,76.42c.3,20.31-1.23,42.46,2.61,59.23,17.6-.28,34.79-1,52.89-.75-.09-2.91-3.49-4.56-5.21-7.07s-2.74-6-5.22-7.83c-1.4,4-2.89,7.75-6.33,8.94-6.21,2.16-13.32-1.28-14.52-4.84-1.1-3.23.16-10.37,1.48-12.29,1.15-1.67,2.61-1.62,4.1-3,.93-.85,1-2.08,1.49-2.61,2.85-2.81,7.3-1.51,11.18,0-.55-6.29-.46-12.48.74-16.39.29-.94.14-2,.38-2.61,1.35-3.78,4.21-6.54,4.09-10C117.83,77.31,101.8,77.19,86.43,76.42Zm31.67,44c.9.59,1.59,1.39,3.35,1.12,1.58-.88,1.49-5.33.37-6.7C118.31,114.38,117.73,116.91,118.1,120.37Zm141.17,19H235.8c-2.37,0-5-.74-7.07-.37-2.78.49-5.92,2.72-8.94,4.1s-6.18,3-8.94,4.09c-6.3,2.53-13.78,3-22.35,3-3,0-6.5.48-9.69,0-2.48-.38-4.51-2.49-7.08-3-2.28-.44-4.85.17-7.07-.37-2.42-.58-4.37-2.56-6.71-3-4.2-.75-9.95,0-15.27,0-18.16,0-33.77-1-52.52-.74,1.19,4.09.8,15.24,3.35,17.51,1.69,1.49,5.34.64,9.68,1.11,2.1.23,3.82,1,5.22,1.12a111.32,111.32,0,0,0,18.62,0c1.89-.16,3.68-.94,5.59-1.12,1.69-.16,3.49.17,5.22,0,3.77-.37,7.42-1.84,11.17-2.23,1.69-.18,3.59.2,5.22,0,3.28-.41,6.23-1.9,9.31-2.24,5.16-.56,10.33.56,15.27,0,3.3-.37,6.46-1.86,9.69-2.23,7.39-.85,11.79,1.42,16.76,2.23,7.13,1.17,13.79,1.12,22.35,1.12,4.89,0,10.36.53,14.9,0,2.77-.32,5.9-1.43,8.94-1.86,1.71-.25,3.64-.15,5.21-.38s3-1,4.47-1.11c2.19-.23,4.23.39,6,0,1.46-.33,2.53-1.9,4.1-2.24,1.81,1.17,3.94.54,6,0,.83-4.26-.08-10.26,1.12-14.15h-.75C272.7,139.93,265.39,139.37,259.27,139.37Z"/><path class="cls-1" d="M245.86,34c7.62.59,21.54-3.45,24.21,3,.91,2.19,1.45,10,0,13.41-1.76,4.13-7.17,2.56-14.15,3.35-3,.34-7.11,2-9.69,2.24-2.21.15-9.5,0-11.55-.75-1.86-.68-3.27-2.93-4.46-4.47-1.53-2-3.44-3.79-3.73-5.22-.76-3.74,1-9.4,3.35-10.43C233.82,33.34,240.06,36.12,245.86,34Zm9.69,8.94c-2.24,0-5.1-.36-7.08,0-1.11.19-2,1-3,1.11-2.81.37-6.52-1.43-7.45,1.49.25,1.88,2.67,1.06,3.72,1.12,3.79.21,5.51-.8,7.83-1.12,2.6-.35,3.69-.91,5.21-1.11,2.33-.31,4.43.52,6.71-.38C260.71,42,257.66,42.91,255.55,42.9Z"/><path class="cls-1" d="M167.26,128.94c-11.39,0-16-8.68-20.48-16.39-1.38-2.35-2.74-4.79-3-6.33-.79-4.92.49-9.31.37-14.53,1.57-2.16,3-4.46,4.84-6.7,1.68-2,3-4.57,4.85-6.33,2.63-2.59,8.28-5.89,12.29-7.45a67.35,67.35,0,0,0,7.07-3.36c3.55-1.84,8.61-2.71,13.79-4.09,2.36-.64,11.79-.9,14.9,0,2.07.6,5.06,3.3,7.45,4.84s5.49,2.8,7.45,4.47c1.05.9,2.22,2.67,3.72,4.1,4.13,3.93,6.38,7.33,8.57,13.78,1.52,4.47,4.07,8.48,3,14.52-.26,1.46-1.58,3.93-2.61,6-3.67,7.27-7.65,10.55-15.64,14.52-3.86,1.92-8.18,4-10.8,4.47-1.39.27-3-.21-4.47,0-2.13.3-4.09,1.87-6.34,2.24a55.9,55.9,0,0,1-7.45.37C177.34,133.07,170.72,133,167.26,128.94Zm22-55.5c-4.54,1.49-9.31,2.3-13,4.1A52.29,52.29,0,0,1,171,79.77c-8.74,3.18-11.14,6.78-15.65,12.67a8,8,0,0,0-1.86,3,26.73,26.73,0,0,0,0,8.94c.22,1,1.49,2.59,2.61,4.47,1.94,3.24,4.6,8.21,7.08,9.68,1.28.77,3.76.39,6.33,1.12,1.92.55,3.47,1.88,5.22,2.24a52.86,52.86,0,0,0,14.89.37c2.07-.28,3.92-1.47,6-1.87,2.26-.43,4.53-.15,6.71-.74a42.43,42.43,0,0,0,7.45-3.35c2.84-1.45,5.88-2.64,7.08-3.73,1.88-1.71,5.15-7.47,5.21-10,0-1.16-.94-3.35-1.49-5.22s-.93-4.12-1.49-5.59c-2-5.39-8-10-12.29-12.66-2.84-1.77-5.7-3.74-8.19-5.59C194.47,73.8,191.45,72.72,189.24,73.44Z"/><path class="cls-2" d="M10.74,241.08q3-5,6.4-9.86a32.25,32.25,0,0,0,4.73-10.43,12.23,12.23,0,0,0-5.94-1.73C13.68,219,11.49,219,9.3,219a13.85,13.85,0,0,0-6.91,2.71l-1-1.5a16.7,16.7,0,0,1,6.68-2.25,46.5,46.5,0,0,1,7.49-.23,26.4,26.4,0,0,1,7.55,1.9v2.48a32.29,32.29,0,0,1-4.95,9.86,81.41,81.41,0,0,0-6,9.5l.4.87-1,.4Z"/><path class="cls-2" d="M52.07,234.22c-.35-2.13-.81-4.21-1.33-6.28l-.8-.17a52.52,52.52,0,0,0-7,6l-.4.58-2.25,1.21-.63-1,8-7.2c1.73-1.22,3.46-2.54,5.24-3.92a9,9,0,0,1,5.77-2l.17.81a33.78,33.78,0,0,0-6.11,3.51l-.58,1.62c.41,2.07.75,4.2,1.16,6.28s.69,4.32,1.09,6.51l-1,.4C52.88,238.43,52.41,236.35,52.07,234.22Z"/><path class="cls-2" d="M78.35,237.1v-2.24a75,75,0,0,1,3.11-9.51,55.77,55.77,0,0,1,4.44-8.88l2.08-.81.17.81a44.63,44.63,0,0,0-5.59,9.62,41.63,41.63,0,0,0-3,10.61l.64,1.5h-.81Zm17.58-5.76a11.56,11.56,0,0,1-1-6.63c.29-3.57.64-7.2,1-10.72l1-.17c.06,4.78-.17,9.57-.58,14.41l1,2.3,2.65.81c2-1.27,4-2.48,6-3.75s4-2.47,6-3.68a33.76,33.76,0,0,1-6,5.18,52.12,52.12,0,0,1-6.4,3.69A6.89,6.89,0,0,1,95.93,231.34Z"/><path class="cls-2" d="M143.71,229l-1.38-.4A67.43,67.43,0,0,0,134,232a20.57,20.57,0,0,1-9,2l-1.61-.63-.23-1.5a50.58,50.58,0,0,1,6.17-9.68c2.42-3.12,4.95-6.17,7.54-9.17a5.84,5.84,0,0,1,4.1-2l.23.8h.57l1.27-.17a14.53,14.53,0,0,0-7.78,4.73c-1.9,2.59-3.86,5.12-5.93,7.66a29.57,29.57,0,0,0-4.73,8.07,2.64,2.64,0,0,0,2.88.86,63.69,63.69,0,0,0,7.67-2.71c2.53-1,5-2.19,7.43-3.22l.23-.64-1.44-3.28,1-.23,1.61,2.07a14.82,14.82,0,0,0,2.36,5.42,39,39,0,0,1,2.94,5.24l-.63.41A41,41,0,0,1,143.71,229Z"/><path class="cls-2" d="M170.34,239a46.33,46.33,0,0,1,1.85-9.57c1-2.94,1.95-6,2.88-9.05l-1.44-.23c-1.79.4-3.58.86-5.42,1.27a11.48,11.48,0,0,0-5.07,2.48v-.81l1-1.67a23.81,23.81,0,0,1,6.06-1.85c2.07-.4,4.14-.86,6.28-1.27l3.05-5.35a3,3,0,0,1,2.42-.58l1.1.81-3.52,2a6.85,6.85,0,0,0-1.21,3.11c1.9,0,3.75.06,5.59.24a14.42,14.42,0,0,1,5.25,1.44,7.78,7.78,0,0,1,.86,5.13c-.58,2.76-1.21,5.47-1.84,8.06s-1.44,5.25-2.25,7.9l-.63.23a3.3,3.3,0,0,1-.87-2.71l.87-.4c.86-2.48,1.55-5.07,2.24-7.78a34,34,0,0,0,1-8.36l-.86-1.27a24,24,0,0,0-8-1.21l-1.61.41-2.25,2.24c-1,3.06-1.78,6.06-2.65,9.05a44,44,0,0,0-1.61,9.4l.17.63-1,.75A5.48,5.48,0,0,1,170.34,239Z"/><path class="cls-2" d="M209.19,239.47a49.59,49.59,0,0,1,5.76-7.73l5.13-5.76v-.86a48.54,48.54,0,0,1-5.94-6.52l1-.23,1.21.87,4.73,4.9h.63c1.62-2.08,3.23-4.15,4.79-6.23s3.22-4,4.84-6.11H232l.58-.63.17.86-10,13.49,7,8.07-1.26.4-6.57-7h-.81q-3.28,3.28-6.23,6.74c-1.95,2.31-3.86,4.61-5.47,6.8Z"/><path class="cls-2" d="M251,214a38.36,38.36,0,0,1,7.73-2.48,33.24,33.24,0,0,1,8.64-.63l2,.63v.64l-1.21,1.21-.81-1.21-1.67-.23a31.13,31.13,0,0,0-7.44.92,41.89,41.89,0,0,0-6.91,2.59Zm4.73,28.07a61.14,61.14,0,0,1,7.55-8.53,17.2,17.2,0,0,0,5.24-9.62,5.85,5.85,0,0,0-5.24-1.27,11.94,11.94,0,0,0-5.65,1.27c-1.67.8-3.46,1.61-5.24,2.47l-.18-1.26a17.12,17.12,0,0,1,6.75-3.06,30.59,30.59,0,0,1,7.78-.63l3.05,1.21.23,2.94a11.17,11.17,0,0,1-2.76,5.36c-1.45,1.49-2.83,3.17-4.21,4.78l-7.15,7Z"/><path class="cls-2" d="M290.69,241.54a68.22,68.22,0,0,1-1.44-9c.11-5.24.11-10.37,0-15.56l1.09-1.44a55.85,55.85,0,0,0,6-2,15.75,15.75,0,0,1,6.46-.92,12.07,12.07,0,0,1,6.4,3.28,23.84,23.84,0,0,1,1.21,5.77,126,126,0,0,0-.81,14.81l-.23.58.81,1.84-1.21.58a22.18,22.18,0,0,1-5.77-.58,28.83,28.83,0,0,0-5.88.92,22.55,22.55,0,0,0-5.36,2.13Zm17.46-14.18-9.86-.57a25,25,0,0,0-7,2.65,5.53,5.53,0,0,0-.4,3.05l1,6.23.81.17c1.9-.4,3.86-.75,5.82-1a42.19,42.19,0,0,1,6.11-.4l2.83.23C307.69,234.22,307.86,230.82,308.15,227.36Zm.4-7.14-.4-.81.17-1a8.32,8.32,0,0,0-3.05-3.28,9.42,9.42,0,0,0-4.32-1,16.83,16.83,0,0,0-9.23,3.69l-.63,1.27.4.63-.57,6.34.4,1.21h1a22.83,22.83,0,0,1,7.61-2.07,55.05,55.05,0,0,1,7.55.63l.63-.4A15,15,0,0,0,308.55,220.22Z"/><path class="cls-2" d="M332.88,234.45l-.64-.23a21.75,21.75,0,0,0-5.93,4.38l-.81,1.61-.58.24-.86-1.62,1.44-2.13,7.15-5.76.23-1.27-.46-2.83.46-1.49-1-.64-4.09,1.5-.81,1h-.86l-.35-1.21.58-1.27a27.09,27.09,0,0,1,6.57-2.07c.34-2.48.69-5,1-7.44l1.21-.17a1.63,1.63,0,0,1,.8,1.9,9.82,9.82,0,0,0-1,5.3,3,3,0,0,0,2.25.41l4.84-.58.47,1.21a38.17,38.17,0,0,1-6.92,1.1,4.53,4.53,0,0,0-1.27,3.22,10.22,10.22,0,0,0,.81,4c1.61.69,3.22,1.44,4.84,2.19s3.11,1.44,4.78,2.13l.18.81-.81.23a71.94,71.94,0,0,1-9.17-3.05l-.23,2.47.41,3.69a.78.78,0,0,1-1,.64A16.11,16.11,0,0,1,332.88,234.45Zm-5.77-19.59a8.63,8.63,0,0,1,4.73-2.25c1.73-.12,3.57-.4,5.3-.69l2.83,1,.23,1.49-.41.75-.86.23-.4-1.44a4.2,4.2,0,0,0-2.66-.4,15.39,15.39,0,0,0-8.12,2.88Zm17.7,13.08a23.3,23.3,0,0,1-.75-7.55,3.91,3.91,0,0,1,1.38-3.69,3.4,3.4,0,0,0,2.42.4l3.11-.63a10.23,10.23,0,0,1,7.09,1.67,6,6,0,0,1,1.27,3.92l-.81,7.38.41.86L358.7,232l.4,1.91-.4.75h-.64a1.82,1.82,0,0,0-2-1,55.84,55.84,0,0,1-8.71,1.22A32,32,0,0,1,344.81,227.94Zm12.27,2.36-.17-3.92.75-4.49-1.38-3.34-5.94-.24-3,1.1-.46,1.21-.8.17-.23,4.56a31,31,0,0,0,2,7,44.09,44.09,0,0,0,6.17.4l2.65-.4A2.74,2.74,0,0,0,357.08,230.3Z"/><path class="cls-2" d="M367.92,242.35a6.92,6.92,0,0,1-1.27-5.36l1.27-2.48a8.12,8.12,0,0,1,7-2,4.22,4.22,0,0,1,3.45,1.85,7.33,7.33,0,0,1,1.1,5.76,6.48,6.48,0,0,1-2.08,3.28,14.37,14.37,0,0,1-4,1.85A5.69,5.69,0,0,1,367.92,242.35Zm9.45-1.21a6.32,6.32,0,0,0,1-3.52l-1.61-3.11a9.2,9.2,0,0,0-4.73-.75l-3.11,1.79a4.9,4.9,0,0,0-1,4.15l2.25,3.05,1.84.63A5.53,5.53,0,0,0,377.37,241.14Z"/></g></g></svg>