<svg xmlns="http://www.w3.org/2000/svg" viewBox="0 0 495.37 69.28"><defs><style>.cls-1{fill-rule:evenodd;}.cls-2{stroke:#000;stroke-miterlimit:10;stroke-width:2px;}</style></defs><title>アセット 6</title><g id="レイヤー_2" data-name="レイヤー 2"><g id="moji"><path class="cls-1" d="M69.22,1.67c.18,1.92.29,3.9.3,6a27.55,27.55,0,0,1,2.84-.15c.59.06,1.13.37,1.8.45A63,63,0,0,0,80.9,8c2.33,0,4.7.14,6.59.15A17.25,17.25,0,0,1,89.89,8a7,7,0,0,1,4.19,3.3c.69,2.05-.21,5.37.15,8.38,2.55.07,4.78-.36,5.69,1.2.5.87.49,2,.45,3.74-.82,1.69-3.71,2.06-6,1.8-.27,4-.15,8.63-.15,13.33s.47,9.4,0,13.48c-.07.57-.37,1.08-.45,1.64s.07,1.35,0,2-.39,1.23-.45,1.8c-.39,3.46.91,5.25-2.1,6.44a12.18,12.18,0,0,1-2.39.75c-.45,0-.86-.18-1.35-.15s-1,.38-1.5.45c-.89.1-1.9-.11-2.84,0-.58.06-1.09.36-1.65.45-1.08.16-2.17.12-3.14.29s-1.93.5-2.85.6a57,57,0,0,1-6,0c-2,0-4.07.19-5.84,0-.52,0-1-.36-1.5-.45s-1.2.1-1.79,0c-1.26-.2-2.53-.76-3.6-.89-2.3-.3-4.3.61-6.89.89-2.12.23-4.26-.17-5.84,0-1,.12-2.08.62-3.14.75-.58.07-1.19,0-1.8,0-1.53.14-3.06.73-4.64.9-.73.08-1.52-.08-2.25,0s-1.28.38-1.95.45a48.85,48.85,0,0,1-9.13,0c-.58-.06-1.12-.36-1.8-.45s-1.72.11-2.54,0a6.32,6.32,0,0,1-4.5-2.69c-1-1.74-.9-4.45-1.19-7.19C10.85,56.22,10,53.86,9.77,52c-.11-.94.09-1.92,0-2.85-.07-.72-.38-1.37-.45-2.09-.53-5.19.4-10.62,0-16-2.31-.74-7.7,1.48-9-.6-.77-1.23,0-3.34.15-4.49s.05-2.05.6-2.54,1.52-.43,2.55-.6a22.62,22.62,0,0,1,5.69-.45c.88-3.82-.29-8.53,2.84-10,1-.49,2.62-.08,3.45-1.19.27-1.22,0-2.4.15-3.75.19-1.51.46-4,1.5-4.64,1.3-.79,3.35.45,4.79.6,1.73.18,3.72-.69,5.54-.45a5.45,5.45,0,0,1,3,1.2c1.22,1.4.41,3.76,1.5,5.09,1.37.94,3.47.76,5.24.3a27.72,27.72,0,0,0-.6-4.64,4.69,4.69,0,0,1-.15-1.5,4.92,4.92,0,0,1,2.7-2.25c1.31-.3,3.24.18,5.09,0C45,1,45.69.69,46.31.62c1.33-.15,2.56.14,3.59,0,.6-.07,1-.39,1.5-.45,3.15-.39,6.71,0,9.73,0C64.44.17,67.9-.17,69.22,1.67ZM51.55,3.77c-.61.07-1.19.38-1.8.45-1.12.12-2.33-.15-3.44,0-.57.07-1.1.38-1.65.45-1.66.19-3.24-.15-4.79,0,.31,3.73,1.2,8.17.9,13,2,.21,4.09-.25,6.29,0,1.3.14,2.57.76,3.74.89,5.45.65,10.31-.4,14.68-1.34,1.07-3.73.33-9.17.6-13.33C61.19,4.08,56.22,3.18,51.55,3.77ZM18.75,9.61c2.89-.44,6.42-1.21,9.59-.45-.12-1-.47-1.73-.6-2.7-2.13-.42-4.27.62-6.44.3-.68-.1-1.54-.71-2.1-.6A12.44,12.44,0,0,0,18.75,9.61ZM82.4,11.85c-1,0-2.24-.07-3.15,0s-1.77.64-2.69.75c-1.85.22-3.68-.16-5.69,0-.2,1.06-1,1.53-1.65,2.1-.24,1.8.12,4.21-1,5.09-.81.14-1.47.43-2.24.6.41.75,1,.5,1.64.9,1.29.87,2.08,2.77,3.75,3.29,1.48.47,4.89.12,7.48,0s5.15.1,7.19-.15c1.66-.2,3.13-.93,4.5-.59a104.67,104.67,0,0,0,0-10.49C87.44,13.5,85.42,11.86,82.4,11.85Zm-47.17,1.2a19.79,19.79,0,0,1-3.15-.3c-1.18-.09-2.4.09-3.44,0s-2.27-.4-3.3-.45A17,17,0,0,0,18,13.65c-.63.3-1.2.87-1.94,1.2s-1.63.43-2.55.9a43.77,43.77,0,0,0-.45,11.68c2.82.62,6.12,0,9.59,0,4.54,0,9.56.21,12.88-.45a62.14,62.14,0,0,1,5.69-4.64,11.79,11.79,0,0,0,2.09-1.5,33.76,33.76,0,0,1-4.79-.15c-1.7-1.36-.5-5.84-.9-8.09A16.15,16.15,0,0,0,35.23,13.05Zm9,12.13c-1.54.68-2.81,2.21-4.19,3.3a18.81,18.81,0,0,0-3.6,3.44,21.69,21.69,0,0,0-1.49,3.6,11.07,11.07,0,0,0-1,2.84,16.7,16.7,0,0,0,.9,8.09,19.22,19.22,0,0,0,1.94,3A18.27,18.27,0,0,0,39,52.29a15.42,15.42,0,0,0,3,1.65,17.39,17.39,0,0,0,3.29,1.49,7.38,7.38,0,0,0,1.5-.3c2.08-.2,2.91.56,4.34.75a28,28,0,0,0,6.14,0c3.54-.4,5.87-1.76,8.39-2.84a12.57,12.57,0,0,0,6.14-4.95A8,8,0,0,0,73.86,42c-.2-4.15-1.77-9.33-3.74-11.53a5,5,0,0,1-.3-.45c-2.64-3.43-4.28-6-9.74-6.43a64,64,0,0,0-9.73.15A24.65,24.65,0,0,0,44.21,25.18Zm-40.58.9c.11.72-.24,1-.15,1.65,1.79-.51,4.18-.1,5.84-.3.27-.35-.21-1,.15-1.5A13.68,13.68,0,0,0,3.63,26.08Zm70.08,1.65c2.13,3.82,4.64,9.77,4.5,15.57a10.71,10.71,0,0,1-2.55,6.59A6.63,6.63,0,0,0,74,52.59c4.24.39,10.18-.46,14.68,0a5.41,5.41,0,0,1,1.8.45c-.1-8.59.2-17.57-.15-25.91C85.85,28.68,79.15,27.82,73.71,27.73Zm-60.8,3C13,38.89,12.42,47.79,14,54.53c7.08-.11,14-.38,21.27-.29,0-1.18-1.41-1.84-2.1-2.85S32,49,31,48.24c-.56,1.61-1.16,3.12-2.54,3.6-2.5.87-5.36-.52-5.84-2a8.05,8.05,0,0,1,.6-4.94c.46-.67,1-.65,1.64-1.2.38-.34.39-.83.6-1,1.15-1.13,2.93-.6,4.5,0a19.44,19.44,0,0,1,.29-6.58c.12-.38.06-.79.15-1,.55-1.53,1.7-2.63,1.65-4.05C25.54,31.08,19.09,31,12.91,30.72ZM25.64,48.39a1.6,1.6,0,0,0,1.35.45c.63-.35.6-2.14.15-2.69C25.73,46,25.5,47,25.64,48.39ZM82.4,56H73a18.67,18.67,0,0,0-2.84-.15,18.92,18.92,0,0,0-3.6,1.65c-1.24.57-2.48,1.2-3.59,1.65-2.53,1-5.54,1.2-9,1.2a28.19,28.19,0,0,1-3.9,0c-1-.16-1.81-1-2.84-1.2s-2,.06-2.85-.15-1.75-1-2.69-1.2a41.83,41.83,0,0,0-6.14,0c-7.3,0-13.58-.4-21.12-.3.48,1.64.32,6.13,1.35,7,.68.6,2.14.26,3.89.45.85.09,1.54.4,2.1.45a45.69,45.69,0,0,0,7.49,0c.75-.07,1.47-.38,2.24-.45s1.4.07,2.1,0c1.52-.15,3-.74,4.49-.9.68-.07,1.44.08,2.1,0,1.32-.17,2.5-.76,3.74-.9,2.08-.23,4.16.23,6.14,0,1.33-.15,2.6-.75,3.9-.9,3-.34,4.74.57,6.73.9a54.22,54.22,0,0,0,9,.45,57,57,0,0,0,6,0c1.12-.13,2.37-.58,3.59-.75.69-.1,1.47-.06,2.1-.15s1.21-.39,1.8-.45c.88-.09,1.7.16,2.39,0s1-.76,1.65-.9a2.91,2.91,0,0,0,2.4,0c.33-1.71,0-4.12.45-5.69h-.3C87.8,56.25,84.86,56,82.4,56Z"/><path class="cls-1" d="M77,13.65c3.06.24,8.66-1.38,9.73,1.2a10.33,10.33,0,0,1,0,5.39c-.71,1.66-2.88,1-5.69,1.35-1.2.13-2.86.82-3.89.9a20,20,0,0,1-4.65-.3c-.74-.27-1.31-1.18-1.79-1.8a7.94,7.94,0,0,1-1.5-2.1c-.31-1.5.41-3.78,1.35-4.19C72.16,13.41,74.67,14.52,77,13.65Zm3.89,3.6a16.82,16.82,0,0,0-2.84,0c-.45.08-.8.39-1.2.45-1.13.14-2.62-.58-3,.59.1.76,1.08.43,1.5.45a11,11,0,0,0,3.14-.45c1-.14,1.49-.37,2.1-.44.94-.13,1.78.21,2.7-.15C83,16.9,81.75,17.25,80.9,17.25Z"/><path class="cls-1" d="M45.41,51.84c-4.58,0-6.42-3.49-8.24-6.59A9.41,9.41,0,0,1,36,42.7c-.32-2,.19-3.74.14-5.84.63-.87,1.2-1.79,2-2.69s1.22-1.84,2-2.55a17.36,17.36,0,0,1,4.94-3,28.58,28.58,0,0,0,2.85-1.35,30.75,30.75,0,0,1,5.54-1.65,19.69,19.69,0,0,1,6,0,17.15,17.15,0,0,1,3,1.95,27.65,27.65,0,0,1,3,1.8c.42.36.89,1.07,1.49,1.64a12.07,12.07,0,0,1,3.45,5.54c.61,1.8,1.64,3.41,1.2,5.84a12.45,12.45,0,0,1-1,2.4c-1.48,2.93-3.08,4.24-6.29,5.84a21.77,21.77,0,0,1-4.34,1.8c-.56.1-1.19-.09-1.8,0-.85.12-1.64.75-2.55.9a24.34,24.34,0,0,1-3,.15C49.46,53.5,46.8,53.46,45.41,51.84Zm8.83-22.31A45.73,45.73,0,0,0,49,31.17a19.94,19.94,0,0,1-2.09.9c-3.52,1.28-4.48,2.72-6.29,5.09a3.3,3.3,0,0,0-.75,1.2,10.78,10.78,0,0,0,0,3.59,9.75,9.75,0,0,0,1.05,1.8c.78,1.31,1.85,3.31,2.84,3.9.52.3,1.52.15,2.55.44.77.23,1.39.76,2.09.9a21,21,0,0,0,6,.15c.83-.11,1.58-.59,2.4-.75s1.82-.06,2.7-.3a16.83,16.83,0,0,0,3-1.34,18,18,0,0,0,2.85-1.5,8.67,8.67,0,0,0,2.09-4,10.91,10.91,0,0,0-.6-2.1c-.22-.77-.37-1.66-.59-2.25-.82-2.16-3.22-4-5-5.09-1.14-.71-2.29-1.5-3.29-2.24C56.35,29.67,55.13,29.24,54.24,29.53Z"/><path class="cls-2" d="M125.51,50.1c2-3.35,4.15-6.63,6.39-9.86a32.14,32.14,0,0,0,4.73-10.43,12.13,12.13,0,0,0-5.94-1.73c-2.24-.06-4.44-.11-6.62-.11a13.84,13.84,0,0,0-6.92,2.7l-1-1.49a16.75,16.75,0,0,1,6.69-2.25,45.34,45.34,0,0,1,7.49-.23,26.48,26.48,0,0,1,7.55,1.9v2.48a32.49,32.49,0,0,1-5,9.85,83.75,83.75,0,0,0-6,9.51l.4.87-1,.4Z"/><path class="cls-2" d="M166.83,43.24c-.34-2.13-.8-4.21-1.32-6.28l-.81-.18a52.52,52.52,0,0,0-7,6l-.41.57-2.25,1.21-.63-1,8-7.21c1.73-1.21,3.46-2.53,5.25-3.92a9,9,0,0,1,5.76-2l.17.8a34.17,34.17,0,0,0-6.11,3.52L167,36.32c.4,2.08.75,4.21,1.15,6.28s.69,4.33,1.1,6.52l-1,.4C167.64,47.45,167.18,45.37,166.83,43.24Z"/><path class="cls-2" d="M193.12,46.12V43.87a72.93,72.93,0,0,1,3.11-9.51,56,56,0,0,1,4.43-8.87l2.08-.81.17.81a45,45,0,0,0-5.59,9.62,41.09,41.09,0,0,0-3,10.61l.63,1.5h-.81Zm17.57-5.76a11.48,11.48,0,0,1-1-6.63c.28-3.57.63-7.2,1-10.72l1-.17c.06,4.78-.17,9.56-.57,14.4l1,2.31,2.66.81c2-1.27,4-2.48,6-3.75s4-2.48,6.05-3.69a33.43,33.43,0,0,1-6.05,5.19,52.12,52.12,0,0,1-6.4,3.69A7,7,0,0,1,210.69,40.36Z"/><path class="cls-2" d="M258.47,38.05l-1.38-.4A65.77,65.77,0,0,0,248.74,41a20.6,20.6,0,0,1-9.05,2l-1.62-.64-.23-1.49A51.46,51.46,0,0,1,244,31.19c2.42-3.11,5-6.16,7.55-9.16a5.85,5.85,0,0,1,4.09-2l.23.81h.58l1.27-.17a14.57,14.57,0,0,0-7.79,4.72C248,28,246.08,30.5,244,33a29.43,29.43,0,0,0-4.73,8.07,2.64,2.64,0,0,0,2.88.86,63.09,63.09,0,0,0,7.67-2.71c2.54-1,5-2.19,7.43-3.23l.23-.63-1.44-3.28,1-.24L258.7,34a14.67,14.67,0,0,0,2.37,5.42A40.62,40.62,0,0,1,264,44.62l-.64.41A42,42,0,0,1,258.47,38.05Z"/><path class="cls-2" d="M285.1,48A47.27,47.27,0,0,1,287,38.45c1-2.93,2-6,2.88-9l-1.44-.23c-1.79.4-3.57.86-5.42,1.26a11.69,11.69,0,0,0-5.07,2.48v-.8l1-1.68A24.13,24.13,0,0,1,285,28.6c2.07-.4,4.15-.86,6.28-1.27L294.32,22a3,3,0,0,1,2.43-.57l1.09.8-3.52,2a6.81,6.81,0,0,0-1.21,3.11c1.91,0,3.75.06,5.6.23A14.71,14.71,0,0,1,304,29a7.8,7.8,0,0,1,.86,5.13c-.57,2.77-1.21,5.48-1.84,8.07s-1.44,5.25-2.25,7.9l-.63.23a3.33,3.33,0,0,1-.87-2.71l.87-.4c.86-2.48,1.55-5.08,2.25-7.79a33.86,33.86,0,0,0,1-8.35l-.86-1.27a24,24,0,0,0-8-1.21l-1.62.4-2.24,2.25c-1,3.06-1.79,6-2.65,9a43.43,43.43,0,0,0-1.62,9.39l.17.64-1,.75A5.43,5.43,0,0,1,285.1,48Z"/><path class="cls-2" d="M324,48.48a49.42,49.42,0,0,1,5.77-7.72L334.84,35v-.87a47.78,47.78,0,0,1-5.93-6.51l1-.23,1.21.86,4.72,4.9h.64c1.61-2.07,3.22-4.15,4.78-6.22s3.23-4,4.84-6.11h.63l.58-.63.17.86-10,13.49,7,8.06-1.27.41-6.57-7h-.81q-3.28,3.28-6.22,6.75c-2,2.3-3.86,4.61-5.48,6.8Z"/><path class="cls-2" d="M365.8,23a37.65,37.65,0,0,1,7.72-2.48,32.43,32.43,0,0,1,8.64-.63l2,.63v.63L383,22.38l-.81-1.22-1.67-.23a31,31,0,0,0-7.43.93,41.11,41.11,0,0,0-6.92,2.59Zm4.72,28.07a61.14,61.14,0,0,1,7.55-8.53,17.21,17.21,0,0,0,5.25-9.63,5.9,5.9,0,0,0-5.25-1.27,12.06,12.06,0,0,0-5.65,1.27c-1.67.81-3.45,1.62-5.24,2.48L367,34.13a17,17,0,0,1,6.74-3.05,31,31,0,0,1,7.78-.64l3.05,1.21.23,2.94A11.09,11.09,0,0,1,382.05,40c-1.44,1.5-2.83,3.17-4.21,4.79l-7.15,7Z"/><path class="cls-2" d="M405.45,50.56A72,72,0,0,1,404,41.51c.11-5.24.11-10.37,0-15.56l1.09-1.44a56,56,0,0,0,6-2,15.72,15.72,0,0,1,6.45-.92,12,12,0,0,1,6.4,3.28,23.4,23.4,0,0,1,1.21,5.76,126.19,126.19,0,0,0-.81,14.82l-.23.57.81,1.85-1.21.57a21.68,21.68,0,0,1-5.76-.57,28,28,0,0,0-5.88.92A22.22,22.22,0,0,0,406.72,51Zm17.46-14.18-9.85-.58a25,25,0,0,0-7,2.65,5.65,5.65,0,0,0-.4,3.06l1,6.22.8.18c1.91-.41,3.87-.75,5.83-1a42.05,42.05,0,0,1,6.1-.4l2.83.23C422.45,43.24,422.62,39.84,422.91,36.38Zm.41-7.15-.41-.8.18-1A8.44,8.44,0,0,0,420,24.1a9.39,9.39,0,0,0-4.32-1,16.8,16.8,0,0,0-9.22,3.69L405.85,28l.41.64L405.68,35l.4,1.21h1a23.14,23.14,0,0,1,7.61-2.08,55.07,55.07,0,0,1,7.55.64l.63-.41A15,15,0,0,0,423.32,29.23Z"/><path class="cls-2" d="M447.64,43.47l-.63-.23a21.54,21.54,0,0,0-5.94,4.38l-.81,1.61-.57.23-.87-1.61,1.44-2.13L447.41,40l.23-1.26-.46-2.83.46-1.5-1-.63-4.09,1.5-.81,1h-.86L440.49,35l.58-1.27a27.69,27.69,0,0,1,6.57-2.08c.35-2.47.69-4.95,1-7.43l1.21-.17a1.64,1.64,0,0,1,.81,1.9,9.72,9.72,0,0,0-1,5.3,3,3,0,0,0,2.25.4l4.84-.57.46,1.21a37.18,37.18,0,0,1-6.92,1.09A4.62,4.62,0,0,0,449,36.61a10.22,10.22,0,0,0,.81,4c1.61.69,3.23,1.44,4.84,2.19s3.11,1.44,4.79,2.13l.17.81-.81.23a71.84,71.84,0,0,1-9.16-3.06l-.23,2.48.4,3.69a.77.77,0,0,1-1,.63A16.25,16.25,0,0,1,447.64,43.47Zm-5.76-19.6a8.62,8.62,0,0,1,4.72-2.24c1.73-.12,3.58-.41,5.31-.7l2.82,1,.23,1.5-.4.75-.87.23-.4-1.44a4.11,4.11,0,0,0-2.65-.4,15.39,15.39,0,0,0-8.13,2.88ZM459.57,37a23.58,23.58,0,0,1-.75-7.55,3.93,3.93,0,0,1,1.38-3.69,3.48,3.48,0,0,0,2.43.4l3.11-.63a10.24,10.24,0,0,1,7.09,1.67,6,6,0,0,1,1.26,3.92l-.8,7.37.4.87L473.46,41l.4,1.9-.4.75h-.63a1.82,1.82,0,0,0-2-1,54.37,54.37,0,0,1-8.7,1.21A32,32,0,0,1,459.57,37Zm12.28,2.36-.18-3.92.75-4.49L471,27.56l-5.94-.23-3,1.1-.46,1.21-.81.17-.23,4.55a30.36,30.36,0,0,0,2,7,44,44,0,0,0,6.16.41l2.65-.41A2.72,2.72,0,0,0,471.85,39.32Z"/><path class="cls-2" d="M482.68,51.37A6.89,6.89,0,0,1,481.42,46l1.26-2.47a8.13,8.13,0,0,1,7-2,4.24,4.24,0,0,1,3.46,1.84,7.4,7.4,0,0,1,1.09,5.77,6.61,6.61,0,0,1-2.07,3.28,14.86,14.86,0,0,1-4,1.85A5.69,5.69,0,0,1,482.68,51.37Zm9.46-1.22a6.34,6.34,0,0,0,1-3.51l-1.62-3.11a9,9,0,0,0-4.72-.75l-3.12,1.78a5,5,0,0,0-1,4.15l2.25,3.06,1.85.63A5.51,5.51,0,0,0,492.14,50.15Z"/></g></g></svg>